<?xml version="1.0" encoding="UTF-8"?>
<svg id="Capa_3" data-name="Capa 3" xmlns="http://www.w3.org/2000/svg" viewBox="0 0 400 400">
  <defs>
    <style>
      .cls-1 {
        fill: #fff;
      }

      .cls-1, .cls-2 {
        stroke-width: 0px;
      }

      .cls-2 {
        fill: #1d1d1b;
      }
    </style>
  </defs>
  <circle class="cls-1" cx="200.02" cy="203.1" r="140"/>
  <g>
    <path class="cls-2" d="m290.48,228.3c-.98,20.9-1.96,41.81-2.94,62.71l-25.54-26.1-34.5,33.13c-.62.68-1.27,1.34-1.94,1.98-16.69,16.03-42.89,15.85-58.51-.41-1.22-1.27-2.34-2.61-3.35-4.03-2.82-3.86-4.92-8.25-6.18-12.86-1.71-6.21-1.94-12.8-.73-19.13,1.24-6.43,3.99-12.57,8.06-17.7.52-.66,1.93-2.1,4.71-4.98,3.32-3.44,6.36-6.46,10.71-10.7,3.13-3.04,3.96-3.8,10.67-10.24,3.93-3.78,7.85-7.55,11.78-11.31.06-.06.12-.11.18-.18l.17-.16c4.28-4.11,8.57-8.22,12.86-12.35,4.29-4.11,8.58-8.23,12.87-12.36,4.06-3.89,8.1-7.78,12.16-11.67,3.58-3.44,7.16-6.87,10.74-10.31,2.86-2.75,5.72-5.49,8.58-8.25,1.91-1.83,3.81-3.65,5.72-5.48.7-.68,1.41-1.37,2.12-2.04l15.03,15.65,2.13,2.22c-.54.51-1.07,1.03-1.61,1.55-1.48,1.43-2.97,2.86-4.47,4.28-2.27,2.19-4.55,4.37-6.82,6.56-2.89,2.78-5.78,5.54-8.67,8.32-2.3,2.21-4.61,4.43-6.91,6.65-1.04.99-2.06,1.97-3.09,2.96-3.61,3.47-7.22,6.93-10.83,10.4-3.71,3.57-7.43,7.14-11.14,10.7-3.42,3.29-6.86,6.58-10.28,9.87-.05.05-.09.09-.13.12-.18.18-.36.35-.54.53-3.41,3.27-6.83,6.54-10.25,9.82-3,2.9-6.01,5.78-9.01,8.68-2.89,2.77-5.71,5.56-8.67,8.24-3.04,2.77-5.97,5.72-8.19,9.18-1.27,1.97-2.3,4.13-2.7,6.43-.37,2.19-.15,4.39.53,6.46,1.24,3.85,4.07,7.24,7.57,9.25,2.7,1.56,5.86,2.35,8.97,2.17,3.18-.19,6.22-1.39,8.82-3.19,2.73-1.89,4.96-4.51,7.33-6.81,1.53-1.47,3.06-2.96,4.59-4.43,2.11-2.04,4.22-4.08,6.32-6.11,2.73-2.63,5.45-5.26,8.17-7.88,3.37-3.26,6.74-6.51,10.1-9.75.14-.14.29-.28.43-.41l-17.97-18.36c21.21-.22,42.43-.44,63.65-.66Z"/>
    <path class="cls-2" d="m235.67,142.07c-1.16,6.44-3.84,12.61-7.86,17.8-.51.66-1.89,2.11-4.64,5.02-3.28,3.47-6.27,6.54-10.59,10.83-3.09,3.07-3.91,3.85-10.54,10.37-1.89,1.86-3.8,3.72-5.69,5.59-.07.07-.15.14-.22.21-2.03,2-4.06,3.99-6.09,5.98-4.23,4.16-8.47,8.33-12.71,12.5s-8.48,8.34-12.72,12.51c-4,3.94-8.02,7.88-12.03,11.82-3.53,3.48-7.07,6.95-10.61,10.44-2.83,2.77-5.66,5.55-8.48,8.34-1.89,1.85-3.78,3.7-5.66,5.55l-2.1,2.06-15.63-15.9-1.74-1.77c.54-.52,1.06-1.04,1.59-1.55,1.47-1.45,2.94-2.9,4.42-4.35,2.25-2.21,4.5-4.42,6.74-6.63,2.73-2.68,5.47-5.37,8.19-8.06t.02-.01l.37-.36c3.29-3.24,6.59-6.48,9.89-9.72,3.57-3.51,7.14-7.02,10.71-10.53,3.67-3.61,7.34-7.22,11.01-10.83,3.61-3.54,7.22-7.09,10.82-10.64,1.7-1.67,3.4-3.34,5.1-5.01.09-.09.19-.18.28-.27,1.58-1.56,3.17-3.12,4.75-4.67,2.98-2.92,5.95-5.85,8.93-8.77,2.85-2.81,5.64-5.64,8.56-8.35,3.01-2.8,5.9-5.78,8.09-9.28,1.24-1.99,2.25-4.15,2.61-6.46.44-2.78-.07-5.56-1.23-8.04-1.48-3.17-4.02-5.88-7.04-7.57-2.73-1.53-5.89-2.28-9.01-2.06-3.16.21-6.19,1.45-8.78,3.29-2.7,1.91-4.9,4.56-7.25,6.89-1.51,1.49-3.02,2.99-4.53,4.49-2.09,2.06-4.18,4.12-6.25,6.18-2.69,2.66-5.39,5.32-8.08,7.98-1.77,1.75-3.55,3.5-5.32,5.25-.03.03-.07.07-.1.1l19.46,18.99c-21.21.71-42.41,1.42-63.62,2.14.5-20.92.99-41.84,1.49-62.76l25.07,24.46,29.32-28.82c.62-.69,1.25-1.35,1.91-2.01,16.51-16.22,42.71-16.34,58.51-.27.83.84,1.61,1.72,2.34,2.63,3.4,4.15,5.91,8.98,7.4,14.14,1.77,6.2,2.08,12.8.94,19.13Z"/>
  </g>
</svg>